<svg width="104" height="104" viewBox="0 0 104 104" fill="none" xmlns="http://www.w3.org/2000/svg">
<circle cx="52" cy="52" r="52" fill="#9FB0B1"/>
<path d="M52 62.8001C46.0353 62.8001 41.2 57.9648 41.2 52.0001C41.2 46.0354 46.0353 41.2001 52 41.2001C57.9646 41.2001 62.8 46.0354 62.8 52.0001C62.8 57.9648 57.9646 62.8001 52 62.8001Z" fill="white"/>
<path d="M31.0772 55.6891C27.9474 56.241 25.8021 59.2643 27.0035 62.2065C28.6809 66.3142 31.3568 69.9739 34.826 72.8338C39.7866 76.9228 46.0434 79.1079 52.4712 78.9957C58.899 78.8836 65.0759 76.4815 69.8909 72.2216C73.258 69.2426 75.8047 65.4915 77.3377 61.328C78.4357 58.3455 76.1861 55.3989 73.039 54.9567C69.892 54.5144 67.0664 56.8051 65.5119 59.5771C64.6693 61.0796 63.5755 62.4427 62.265 63.6021C59.5024 66.0463 55.9584 67.4244 52.2705 67.4888C48.5825 67.5531 44.9926 66.2996 42.1464 63.9533C40.7962 62.8403 39.6556 61.5162 38.761 60.044C37.1108 57.328 34.2069 55.1372 31.0772 55.6891Z" fill="white"/>
<path d="M78.7913 55.3742C78.9292 54.2688 79.0001 53.1427 79.0001 52.0001C79.0001 37.0883 66.9118 25 52.0001 25C37.0883 25 25 37.0883 25 52.0001C25 53.4665 25.1169 54.9056 25.3419 56.3087C26.5821 54.611 28.5177 53.399 30.6084 53.0304C32.8704 52.6315 34.9263 53.1801 36.6645 54.2056C36.5618 53.4852 36.5087 52.7489 36.5087 52.0001C36.5087 43.4445 43.4445 36.5087 52.0001 36.5087C60.5557 36.5087 67.4914 43.4445 67.4914 52.0001C67.4914 52.5642 67.4612 53.1213 67.4025 53.6697C69.104 52.5838 71.1399 51.9633 73.4149 52.2832C75.5166 52.5786 77.4926 53.7216 78.7913 55.3742Z" fill="white"/>
</svg>
